<?xml version="1.0" standalone="no"?>
<!DOCTYPE svg PUBLIC "-//W3C//DTD SVG 20010904//EN"
 "http://www.w3.org/TR/2001/REC-SVG-20010904/DTD/svg10.dtd">
<svg version="1.0" xmlns="http://www.w3.org/2000/svg"
 width="4801.000000pt" height="4801.000000pt" viewBox="0 0 4801.000000 4801.000000"
 preserveAspectRatio="xMidYMid meet">
<metadata>
Created by potrace 1.14, written by Peter Selinger 2001-2017
</metadata>
<g transform="translate(0.000000,4801.000000) scale(0.100000,-0.100000)"
fill="#000000" stroke="none">
<path d="M29997 38714 c-1 -1 -285 -5 -632 -9 -752 -8 -1076 -14 -1555 -30
-69 -2 -208 -7 -310 -10 -102 -3 -232 -8 -290 -10 -58 -2 -175 -7 -260 -10
-85 -3 -195 -8 -245 -10 -49 -2 -157 -7 -240 -10 -82 -3 -188 -8 -235 -10 -87
-4 -230 -11 -405 -20 -123 -6 -285 -14 -385 -20 -41 -2 -127 -6 -190 -10 -63
-3 -144 -8 -180 -10 -36 -2 -112 -7 -170 -10 -58 -3 -134 -8 -170 -10 -36 -3
-110 -7 -165 -10 -132 -7 -234 -14 -320 -20 -38 -3 -104 -7 -145 -10 -79 -5
-171 -13 -255 -20 -27 -3 -84 -7 -125 -10 -41 -3 -93 -7 -115 -10 -22 -2 -74
-6 -115 -10 -41 -3 -91 -8 -110 -10 -19 -2 -66 -7 -105 -11 -69 -6 -112 -10
-190 -19 -22 -2 -69 -6 -105 -10 -63 -5 -378 -40 -450 -50 -19 -2 -60 -7 -90
-10 -69 -7 -125 -14 -170 -20 -19 -3 -55 -7 -80 -10 -25 -3 -76 -9 -115 -15
-102 -14 -190 -25 -276 -35 -25 -3 -54 -7 -65 -9 -11 -2 -47 -7 -79 -11 -33
-4 -68 -9 -79 -11 -10 -2 -44 -6 -75 -9 -31 -4 -63 -8 -71 -10 -8 -2 -35 -7
-60 -10 -25 -3 -72 -10 -105 -15 -33 -5 -80 -12 -105 -15 -25 -3 -70 -10 -100
-15 -30 -5 -72 -12 -92 -15 -111 -15 -353 -52 -458 -70 -47 -8 -103 -17 -125
-20 -42 -6 -132 -22 -175 -30 -13 -3 -42 -7 -65 -10 -22 -3 -76 -12 -120 -20
-44 -8 -96 -17 -115 -20 -73 -12 -427 -75 -475 -85 -27 -5 -67 -12 -89 -16
-21 -3 -48 -8 -60 -10 -26 -6 -329 -63 -371 -71 -16 -2 -108 -20 -203 -39 -96
-19 -186 -36 -200 -39 -32 -6 -53 -10 -152 -30 -71 -14 -89 -18 -142 -30 -13
-3 -45 -9 -73 -15 -27 -5 -59 -11 -70 -14 -11 -2 -40 -9 -65 -15 -25 -5 -60
-12 -78 -16 -18 -3 -65 -12 -105 -21 -75 -16 -79 -17 -162 -34 -27 -6 -59 -12
-70 -15 -233 -50 -357 -78 -385 -85 -19 -5 -46 -11 -60 -14 -14 -2 -126 -28
-250 -56 -124 -28 -232 -53 -240 -55 -8 -1 -55 -13 -105 -25 -97 -23 -96 -23
-170 -40 -118 -26 -1029 -254 -1125 -281 -58 -16 -114 -31 -125 -33 -34 -7
-536 -144 -770 -210 -356 -100 -777 -225 -1085 -321 -135 -42 -272 -85 -305
-95 -33 -10 -159 -51 -280 -91 -121 -40 -224 -74 -230 -75 -10 -3 -514 -176
-545 -187 -8 -3 -44 -15 -80 -27 -193 -65 -359 -123 -385 -135 -16 -7 -41 -16
-55 -20 -120 -34 -1174 -434 -1305 -495 -11 -5 -65 -28 -120 -50 -55 -23 -118
-50 -140 -60 -22 -10 -94 -41 -160 -70 -66 -29 -157 -70 -203 -91 -45 -22 -85
-39 -89 -39 -11 0 -1944 -972 -2128 -1070 -38 -21 -126 -67 -195 -103 -211
-110 -563 -306 -758 -421 -253 -150 -728 -462 -1002 -659 -74 -53 -143 -102
-153 -109 -10 -7 -85 -63 -166 -123 -82 -61 -161 -119 -176 -130 -49 -37 -430
-326 -445 -338 -18 -15 -172 -134 -209 -162 -37 -28 -225 -178 -231 -185 -3
-3 -50 -43 -105 -90 -55 -47 -105 -89 -111 -95 -6 -5 -44 -39 -84 -75 -40 -36
-80 -72 -89 -80 -9 -9 -56 -52 -106 -95 -49 -44 -94 -85 -100 -91 -5 -6 -66
-60 -135 -119 -119 -104 -546 -525 -695 -685 -38 -42 -102 -110 -141 -152
-242 -260 -707 -837 -935 -1163 -295 -420 -604 -954 -779 -1345 -29 -63 -58
-128 -65 -145 -132 -291 -343 -920 -390 -1165 -2 -12 -7 -30 -10 -40 -3 -10
-7 -27 -9 -37 -2 -10 -18 -85 -34 -168 -17 -82 -33 -163 -35 -180 -5 -26 -20
-120 -32 -195 -2 -14 -7 -47 -10 -75 -3 -27 -8 -66 -10 -85 -44 -317 -53 -927
-20 -1280 16 -172 47 -422 60 -480 3 -14 8 -45 11 -70 3 -25 10 -63 14 -85 5
-22 12 -56 15 -75 3 -19 8 -42 10 -50 2 -8 7 -31 10 -50 9 -57 94 -394 122
-483 123 -402 210 -634 363 -975 197 -438 496 -978 718 -1297 58 -84 214 -295
243 -330 9 -11 56 -69 104 -130 49 -60 93 -114 99 -120 6 -5 21 -22 32 -37 22
-28 111 -132 130 -152 5 -6 50 -56 98 -111 210 -238 753 -793 1031 -1054 55
-52 125 -117 155 -146 179 -168 578 -523 775 -690 32 -27 75 -64 94 -81 173
-148 478 -397 750 -612 167 -132 248 -194 439 -340 619 -471 1346 -961 1937
-1306 110 -64 207 -121 215 -126 8 -6 24 -14 35 -19 11 -5 49 -26 85 -46 122
-70 505 -262 665 -333 376 -167 700 -275 978 -327 48 -9 93 -15 99 -13 12 4
-78 76 -142 115 -76 47 -252 144 -375 208 -268 140 -343 180 -455 243 -63 36
-140 79 -170 95 -239 131 -858 528 -1193 766 -119 84 -596 438 -607 451 -3 3
-72 59 -155 124 -82 66 -152 122 -155 125 -3 3 -30 26 -60 51 -475 388 -1116
995 -1495 1415 -44 48 -89 98 -101 109 -67 66 -413 475 -581 686 -381 479
-778 1078 -1045 1575 -67 124 -238 472 -283 575 -21 47 -48 108 -60 135 -44
99 -144 374 -198 545 -48 152 -60 192 -73 245 -1 6 -16 64 -32 130 -26 102
-77 334 -87 400 -2 11 -11 63 -19 115 -9 52 -18 111 -20 130 -3 19 -7 58 -11
85 -3 28 -8 64 -10 80 -2 17 -6 59 -10 95 -3 36 -8 83 -10 105 -26 255 -26
853 -1 1130 2 22 7 72 10 110 4 39 9 81 11 95 2 14 7 52 10 85 5 51 35 257 49
335 3 14 12 63 20 110 72 403 189 815 371 1310 140 377 396 894 643 1290 114
184 371 551 518 740 71 91 353 440 368 456 12 12 35 39 52 60 18 22 45 53 60
69 16 17 61 66 99 109 212 238 639 667 941 947 27 25 105 92 174 150 69 57
130 108 136 114 47 42 411 348 563 472 102 85 356 280 565 436 208 155 383
287 390 293 64 59 741 518 1066 723 163 102 640 393 720 439 19 11 91 53 160
93 129 75 309 176 440 246 41 22 107 58 145 78 100 54 725 368 880 442 217
104 346 163 435 203 47 21 123 55 170 77 47 22 123 57 170 77 47 21 104 46
126 56 118 53 379 167 529 230 94 40 184 78 200 85 17 8 109 46 205 85 96 39
184 75 195 80 33 16 365 145 615 241 129 50 244 94 255 99 17 8 172 65 345
128 30 11 100 36 155 57 55 20 105 38 110 39 6 2 17 6 25 9 42 17 530 184 650
223 47 15 123 40 170 56 47 16 92 31 100 33 8 2 42 12 75 23 117 40 663 210
875 273 441 130 1330 381 1404 395 10 2 33 8 50 13 17 6 74 21 126 35 128 34
331 86 350 91 8 2 168 42 355 89 187 46 351 87 365 90 14 2 102 23 195 45 226
55 367 89 445 106 109 24 253 57 285 65 22 5 51 12 65 14 14 2 63 13 110 25
47 11 98 22 113 25 16 3 103 21 195 41 194 42 221 47 224 45 2 -1 15 3 29 9
15 5 47 12 70 16 24 3 58 10 74 15 17 4 48 12 70 16 22 4 45 8 50 9 198 44
1164 229 1510 290 17 3 107 18 200 35 94 16 187 32 209 36 21 3 48 8 60 10 23
5 309 52 366 60 19 3 71 11 115 19 44 8 98 17 120 20 67 10 168 25 205 31 100
15 220 33 260 39 25 3 56 8 70 10 14 2 45 7 70 10 25 4 56 8 70 10 37 6 99 14
150 20 25 3 52 7 60 9 8 3 40 7 71 11 31 3 65 7 75 9 11 2 44 7 74 11 30 4 69
8 85 11 17 2 86 11 155 19 69 9 141 18 160 20 19 2 58 7 85 10 83 10 116 14
200 24 44 5 107 13 140 16 33 4 76 9 95 11 19 2 53 6 75 8 22 3 69 7 105 11
36 3 81 8 100 10 19 2 67 7 105 10 39 4 81 8 95 10 14 2 57 7 95 10 39 3 86 8
105 10 19 2 67 7 105 10 39 4 81 8 95 10 14 2 59 7 100 10 41 3 93 7 115 10
22 2 72 7 110 10 39 3 88 7 110 10 49 5 195 18 350 30 39 4 90 8 115 10 25 3
77 7 115 10 39 3 95 8 125 10 30 3 89 7 130 10 41 3 93 8 115 10 49 4 177 14
269 20 38 3 94 7 125 9 31 3 97 8 146 11 50 3 117 8 150 10 33 3 96 7 140 10
106 6 259 16 315 20 25 2 99 6 165 10 66 4 145 8 175 10 30 2 105 7 165 10 61
3 146 7 190 10 44 3 132 7 195 10 63 3 160 7 215 10 238 12 309 15 455 20 85
3 202 8 260 10 129 5 463 16 625 20 695 16 976 19 1780 19 912 0 1453 -7 2065
-28 91 -4 233 -9 315 -11 83 -3 197 -8 255 -10 58 -3 164 -7 235 -10 72 -3
168 -7 215 -10 47 -2 139 -7 205 -10 123 -5 267 -13 390 -20 39 -2 115 -7 170
-10 95 -5 135 -7 335 -20 47 -3 114 -8 150 -10 117 -7 244 -16 300 -20 30 -3
93 -7 140 -10 47 -4 108 -8 135 -10 28 -2 95 -6 150 -10 55 -4 118 -9 140 -11
22 -2 76 -6 120 -9 92 -7 180 -14 245 -20 25 -2 81 -7 125 -10 44 -3 98 -7
120 -10 22 -2 74 -7 115 -10 41 -4 91 -8 110 -10 19 -2 71 -6 115 -10 44 -3
94 -8 112 -10 18 -2 70 -7 115 -10 46 -3 94 -8 108 -10 14 -2 57 -6 95 -9 39
-4 90 -8 115 -11 25 -2 72 -7 105 -10 33 -3 76 -8 95 -10 19 -2 67 -7 105 -10
39 -3 86 -8 105 -10 139 -15 194 -21 290 -30 36 -3 76 -7 90 -10 14 -2 54 -7
90 -11 134 -14 201 -22 256 -29 75 -9 149 -17 184 -20 19 -1 58 -6 85 -9 72
-8 311 -35 375 -42 30 -3 69 -7 85 -9 17 -2 57 -7 90 -10 92 -9 135 -14 190
-20 28 -3 79 -8 115 -10 36 -3 84 -8 106 -10 45 -5 193 -15 287 -19 31 -2 57
0 57 4 0 14 -107 49 -239 76 -12 3 -51 11 -85 19 -33 8 -77 17 -96 20 -19 3
-66 12 -105 20 -157 33 -828 154 -1045 189 -19 3 -46 8 -60 10 -14 3 -81 15
-150 26 -69 12 -192 34 -275 50 -82 16 -163 31 -180 34 -16 3 -57 11 -90 17
-33 6 -70 13 -82 15 -13 2 -35 6 -50 9 -16 3 -80 14 -143 25 -63 11 -126 22
-140 25 -41 7 -252 43 -290 49 -19 3 -48 8 -65 11 -46 8 -86 14 -130 20 -22 4
-92 15 -155 25 -63 11 -133 22 -155 25 -22 2 -51 7 -65 9 -14 3 -43 8 -65 11
-22 3 -67 10 -100 15 -33 5 -80 12 -105 16 -25 3 -54 7 -65 8 -11 2 -47 7 -80
11 -33 4 -69 9 -80 11 -11 2 -40 6 -65 9 -40 5 -68 9 -135 20 -11 2 -42 6 -70
9 -53 6 -116 14 -175 22 -60 8 -253 33 -310 39 -30 3 -66 8 -80 10 -14 2 -52
6 -85 10 -33 4 -73 8 -90 10 -72 10 -123 15 -262 30 -27 3 -70 8 -98 11 -27 3
-66 7 -85 9 -63 6 -154 15 -195 20 -22 2 -67 7 -100 10 -33 3 -76 8 -95 10
-19 2 -64 7 -100 10 -36 3 -83 8 -105 10 -22 3 -71 7 -110 10 -38 3 -86 8
-105 10 -19 3 -69 7 -110 10 -41 3 -95 7 -120 10 -25 3 -76 7 -115 10 -38 3
-93 7 -121 10 -128 10 -194 15 -264 20 -41 3 -102 7 -135 10 -33 3 -96 7 -140
10 -44 3 -107 7 -140 10 -84 6 -215 15 -315 20 -123 7 -245 15 -320 20 -81 6
-312 17 -610 30 -80 4 -181 8 -225 10 -44 2 -156 7 -250 10 -93 3 -213 8 -265
10 -86 4 -344 11 -720 20 -249 6 -1769 22 -1773 19z"/>
<path d="M34747 37124 c-1 -1 -202 -5 -447 -8 -245 -4 -519 -9 -610 -11 -91
-3 -250 -7 -355 -10 -288 -8 -478 -14 -860 -30 -55 -3 -158 -7 -230 -10 -150
-6 -301 -13 -430 -20 -49 -3 -137 -7 -195 -10 -58 -3 -132 -7 -165 -10 -33 -2
-116 -7 -185 -10 -69 -4 -141 -9 -160 -10 -19 -1 -91 -5 -160 -9 -69 -4 -145
-9 -170 -11 -25 -2 -88 -7 -140 -10 -52 -3 -120 -8 -150 -10 -30 -2 -93 -7
-140 -10 -47 -3 -110 -8 -141 -10 -30 -3 -84 -7 -120 -10 -35 -2 -95 -7 -134
-10 -38 -3 -97 -8 -130 -10 -33 -3 -85 -7 -115 -10 -30 -2 -89 -7 -130 -10
-41 -3 -95 -8 -120 -10 -25 -3 -74 -7 -110 -10 -36 -3 -85 -7 -110 -10 -25 -2
-76 -7 -115 -10 -38 -3 -86 -7 -105 -10 -19 -2 -70 -7 -112 -10 -42 -3 -92 -8
-110 -10 -18 -2 -62 -7 -98 -10 -144 -13 -176 -16 -310 -30 -30 -4 -77 -8
-105 -11 -27 -2 -66 -6 -85 -9 -19 -2 -64 -7 -100 -11 -75 -7 -114 -11 -185
-19 -27 -3 -68 -7 -90 -10 -131 -13 -162 -17 -184 -20 -14 -2 -54 -7 -90 -10
-36 -4 -78 -8 -92 -11 -14 -2 -52 -6 -85 -9 -32 -3 -70 -8 -84 -10 -14 -2 -45
-6 -70 -9 -41 -5 -237 -29 -335 -41 -21 -2 -73 -9 -115 -14 -41 -6 -99 -13
-129 -16 -30 -4 -61 -8 -70 -10 -9 -1 -41 -6 -72 -9 -31 -4 -65 -8 -76 -10
-11 -3 -44 -7 -74 -10 -30 -3 -63 -8 -74 -10 -11 -2 -45 -7 -75 -10 -30 -4
-66 -8 -80 -11 -14 -2 -63 -9 -110 -15 -47 -6 -96 -13 -110 -15 -14 -2 -45 -6
-70 -10 -25 -4 -56 -8 -70 -10 -14 -2 -45 -6 -70 -10 -25 -4 -58 -9 -75 -11
-16 -2 -41 -6 -55 -9 -24 -4 -77 -12 -137 -19 -45 -6 -126 -18 -148 -22 -11
-3 -38 -7 -60 -10 -22 -2 -51 -7 -65 -9 -14 -2 -86 -14 -160 -25 -74 -11 -187
-29 -250 -40 -112 -18 -141 -23 -225 -35 -22 -3 -51 -8 -65 -11 -14 -2 -38 -7
-55 -9 -16 -3 -52 -10 -80 -15 -27 -5 -68 -12 -90 -15 -22 -3 -89 -14 -150
-25 -169 -29 -173 -30 -207 -35 -18 -3 -55 -10 -83 -15 -27 -5 -66 -11 -85
-14 -19 -3 -66 -12 -105 -20 -38 -8 -88 -17 -110 -20 -22 -3 -62 -11 -90 -16
-55 -11 -62 -12 -220 -41 -60 -11 -193 -36 -295 -55 -102 -20 -194 -38 -205
-40 -11 -2 -31 -6 -45 -9 -45 -10 -83 -17 -305 -61 -43 -8 -139 -28 -145 -29
-5 -2 -76 -16 -100 -21 -8 -1 -123 -26 -255 -54 -132 -28 -249 -53 -260 -55
-11 -3 -92 -21 -180 -41 -88 -20 -171 -38 -185 -40 -53 -10 -526 -119 -735
-170 -121 -29 -231 -55 -245 -58 -52 -10 -715 -178 -955 -241 -137 -37 -308
-82 -380 -101 -71 -19 -152 -41 -180 -49 -42 -12 -436 -123 -545 -154 -561
-156 -1903 -585 -2305 -738 -22 -8 -119 -43 -215 -78 -305 -110 -941 -352
-1035 -394 -11 -5 -56 -23 -100 -41 -44 -17 -89 -35 -100 -40 -11 -5 -60 -26
-110 -46 -49 -20 -103 -42 -120 -50 -16 -7 -53 -22 -81 -33 -28 -11 -71 -29
-95 -39 -24 -11 -105 -46 -179 -77 -74 -32 -148 -63 -165 -70 -135 -59 -205
-90 -235 -103 -19 -9 -37 -16 -40 -17 -3 -1 -36 -16 -74 -33 -38 -18 -70 -32
-72 -32 -2 0 -43 -19 -91 -41 -86 -40 -136 -63 -238 -109 -27 -13 -104 -48
-170 -80 -66 -31 -181 -85 -255 -121 -147 -69 -858 -426 -955 -479 -84 -46
-221 -118 -280 -149 -27 -14 -51 -29 -53 -33 -2 -5 -7 -8 -11 -8 -11 0 -499
-272 -611 -340 -8 -6 -91 -55 -185 -111 -93 -55 -186 -111 -205 -123 -19 -13
-84 -54 -145 -91 -348 -215 -807 -525 -1168 -792 -157 -116 -435 -329 -447
-343 -3 -3 -36 -30 -75 -59 -38 -30 -79 -62 -90 -72 -11 -10 -81 -69 -155
-131 -141 -118 -366 -316 -485 -427 -121 -113 -577 -572 -655 -660 -41 -46
-80 -89 -85 -95 -28 -30 -248 -290 -300 -356 -33 -41 -66 -81 -73 -89 -30 -32
-275 -365 -353 -481 -46 -69 -86 -127 -89 -130 -3 -3 -49 -75 -102 -160 -384
-621 -664 -1244 -827 -1841 -17 -63 -38 -136 -46 -164 -34 -120 -116 -523
-130 -645 -3 -25 -7 -54 -9 -66 -2 -12 -7 -57 -11 -100 -4 -43 -9 -88 -11 -99
-16 -82 -23 -540 -11 -715 10 -145 36 -379 52 -473 37 -211 49 -273 91 -442
32 -130 96 -354 114 -400 5 -11 25 -67 45 -125 20 -58 43 -118 50 -135 7 -16
31 -75 53 -130 169 -422 446 -923 755 -1365 76 -109 275 -379 287 -390 3 -3
39 -48 80 -100 41 -52 77 -97 80 -100 3 -3 39 -45 80 -95 41 -49 77 -92 80
-95 3 -3 20 -23 39 -45 37 -44 160 -180 261 -289 220 -238 661 -663 950 -916
46 -41 275 -235 294 -250 11 -8 35 -29 55 -46 36 -31 371 -299 427 -341 16
-12 38 -29 49 -38 92 -74 504 -374 695 -507 272 -188 822 -548 839 -548 5 0
11 -3 13 -8 4 -11 363 -225 563 -337 43 -24 190 -106 265 -147 127 -70 368
-201 475 -258 367 -194 485 -256 735 -382 541 -272 921 -441 1134 -503 107
-30 114 -31 90 -4 -45 50 -111 88 -407 236 -211 106 -407 219 -802 466 -142
88 -204 128 -335 212 -79 50 -719 479 -776 518 -33 24 -114 81 -180 127 -204
143 -706 519 -824 617 -8 7 -53 43 -100 80 -132 106 -510 421 -530 443 -3 4
-50 46 -105 95 -317 282 -681 643 -932 921 -226 252 -490 574 -633 774 -41 58
-77 107 -80 110 -16 13 -237 352 -317 485 -127 211 -192 332 -298 550 -236
485 -379 903 -490 1430 -12 57 -45 257 -50 305 -3 30 -8 62 -10 70 -2 8 -7 51
-11 95 -3 44 -8 88 -9 97 -8 42 -19 318 -19 478 1 150 9 348 19 455 12 126 16
173 20 195 7 45 27 183 30 209 5 35 21 127 30 171 3 14 8 39 11 55 2 17 18 89
35 160 17 72 32 138 34 148 27 121 207 683 226 702 5 5 9 15 9 23 0 12 48 130
101 250 10 23 29 63 40 90 31 69 181 367 223 442 19 36 39 72 43 80 4 8 49 86
100 173 197 331 486 741 748 1057 77 94 231 275 255 300 8 9 53 58 99 108 166
182 307 327 523 537 677 658 1447 1253 2474 1911 113 73 442 279 484 303 25
14 94 55 153 91 125 75 124 75 293 172 162 93 217 125 274 156 25 13 88 48
140 77 299 165 1125 586 1360 693 25 11 83 38 130 60 47 22 119 55 160 75 72
33 97 44 235 107 33 15 85 39 115 53 152 70 516 227 527 227 7 0 13 5 13 10 0
6 5 10 12 10 10 0 347 138 453 185 136 61 848 339 1180 461 127 47 253 93 280
104 47 17 82 30 265 95 41 15 232 81 424 146 192 66 350 119 350 120 1 0 8 2
16 4 8 2 107 33 220 70 296 95 934 288 995 301 11 2 31 8 45 13 23 9 153 46
300 85 30 8 136 38 235 66 99 28 221 62 270 75 50 13 198 53 330 88 389 105
807 215 848 223 10 2 27 6 37 9 10 3 27 8 37 10 10 2 81 20 158 40 77 19 149
37 160 39 11 2 27 7 35 10 8 3 26 8 40 10 14 3 111 26 215 52 229 56 337 81
390 93 22 5 99 22 170 39 72 17 139 33 150 35 11 2 81 17 155 35 212 49 413
94 435 97 11 2 54 11 95 20 41 10 93 21 115 25 22 4 139 29 260 54 183 39 438
92 545 112 13 3 56 12 95 20 38 8 86 17 105 20 19 3 43 7 52 10 10 3 30 7 45
10 16 2 39 7 53 9 14 3 39 8 55 11 17 3 62 11 100 19 39 8 120 23 180 34 61
11 124 23 140 26 17 3 41 8 55 10 14 2 72 13 130 24 58 11 119 22 135 24 17 3
136 24 265 47 129 22 246 43 260 46 45 7 214 36 245 40 17 3 66 11 110 19 44
8 98 16 120 20 22 3 92 14 155 25 63 10 135 22 160 25 25 3 97 14 160 25 63
10 137 21 163 25 27 4 56 8 65 10 15 3 133 20 202 30 33 5 111 17 130 20 8 2
38 6 65 9 28 4 77 11 110 16 85 13 119 17 215 30 47 6 96 13 110 15 34 5 317
45 360 50 19 3 58 7 85 10 28 3 77 10 110 15 33 5 84 12 114 15 30 4 61 8 70
10 9 1 45 6 81 10 36 4 79 9 95 11 17 2 50 7 75 10 25 3 56 7 70 9 14 2 50 7
80 10 30 3 89 10 130 15 41 5 98 12 125 15 28 2 66 7 85 9 51 8 376 45 440 51
52 5 99 10 180 20 19 2 64 7 100 10 84 8 136 14 180 20 19 2 64 7 100 10 36 3
85 8 110 10 25 3 70 7 100 10 30 3 75 7 100 10 25 2 74 7 110 10 36 3 81 8
100 10 35 5 80 9 215 20 39 3 86 8 105 10 37 4 155 15 230 20 25 2 74 6 110 9
36 4 92 9 125 11 33 3 83 8 110 10 28 3 82 7 120 10 39 3 95 7 125 10 30 2 93
7 140 11 47 3 101 7 120 9 19 2 80 6 135 9 55 4 120 8 145 11 25 2 88 7 140
10 52 3 122 8 155 10 33 2 98 7 145 10 47 3 117 7 155 10 120 8 322 20 520 30
66 3 145 8 175 10 30 2 118 7 195 10 77 3 160 8 185 10 25 2 124 7 220 10 96
4 211 8 255 10 44 2 154 7 245 10 91 3 206 8 255 10 80 3 411 13 700 20 931
25 2497 25 3443 0 206 -5 509 -15 642 -20 63 -3 180 -7 260 -10 321 -12 589
-24 690 -30 36 -2 117 -7 180 -10 313 -16 456 -24 550 -31 41 -3 107 -7 145
-9 128 -8 239 -15 290 -20 28 -2 95 -7 150 -11 55 -3 118 -7 140 -9 22 -2 81
-6 130 -10 111 -8 183 -13 255 -20 30 -3 83 -7 118 -10 34 -3 88 -7 120 -10
31 -3 86 -7 122 -10 101 -8 190 -16 335 -30 22 -2 69 -7 105 -10 36 -3 81 -8
100 -9 19 -2 67 -7 105 -10 39 -4 88 -9 110 -11 22 -2 87 -9 145 -15 58 -6
121 -13 140 -15 19 -2 62 -7 95 -10 33 -3 76 -7 95 -10 19 -2 62 -7 95 -10 33
-4 74 -8 90 -10 30 -4 70 -9 180 -20 33 -4 71 -8 85 -10 14 -2 50 -7 80 -10
30 -3 66 -8 80 -10 14 -2 50 -6 80 -10 30 -3 71 -8 90 -10 19 -3 55 -7 80 -10
25 -2 61 -7 80 -10 61 -8 157 -18 300 -30 36 -3 83 -8 105 -10 221 -24 463
-20 370 7 -33 10 -193 44 -240 52 -16 3 -70 12 -120 21 -49 9 -106 18 -125 21
-19 2 -48 7 -65 9 -16 3 -50 7 -75 11 -25 3 -51 7 -59 10 -8 3 -28 7 -45 9
-100 14 -256 36 -277 40 -67 10 -169 25 -213 30 -27 3 -52 8 -55 9 -3 2 -33 6
-66 10 -33 3 -73 8 -90 11 -64 11 -92 15 -140 20 -27 4 -77 10 -110 15 -33 5
-80 12 -105 15 -25 3 -56 7 -70 10 -40 6 -102 14 -145 20 -60 7 -276 36 -305
40 -14 2 -52 7 -85 11 -33 3 -67 8 -76 9 -9 2 -61 8 -115 15 -55 6 -110 13
-124 15 -34 5 -94 13 -160 20 -72 9 -117 14 -160 20 -42 5 -119 14 -175 20
-50 5 -129 14 -175 20 -19 3 -62 7 -95 10 -33 3 -71 8 -85 10 -14 2 -56 7 -95
11 -38 3 -78 8 -88 10 -10 2 -53 6 -95 10 -42 3 -84 7 -92 9 -8 2 -49 6 -90 9
-41 4 -91 9 -110 11 -141 16 -174 19 -280 29 -30 3 -82 8 -115 11 -33 3 -78 8
-100 10 -46 5 -119 12 -220 20 -38 3 -90 8 -113 11 -24 3 -74 7 -110 9 -37 2
-87 7 -112 10 -25 2 -76 7 -115 10 -38 3 -92 7 -120 10 -27 2 -84 7 -125 10
-72 5 -124 9 -247 20 -32 3 -89 7 -128 10 -38 3 -104 8 -145 11 -138 10 -174
13 -285 20 -60 4 -126 8 -145 9 -109 8 -234 16 -295 20 -38 2 -108 7 -155 10
-85 6 -147 9 -360 19 -63 4 -144 8 -180 11 -36 3 -119 7 -185 10 -66 3 -163 8
-215 10 -431 22 -946 41 -1650 60 -502 13 -2382 28 -2393 19z"/>
<path d="M14803 30484 c-138 -31 -224 -110 -281 -258 -13 -36 -16 -144 -17
-868 -1 -741 0 -833 15 -890 22 -85 43 -122 100 -179 50 -50 108 -82 181 -98
27 -7 255 -11 577 -11 l532 0 0 368 0 367 -152 -1 c-84 -1 -158 -2 -165 -3 -8
-1 -11 -53 -11 -183 0 -101 0 -193 -1 -204 -1 -21 -2 -21 -303 -20 -340 2
-347 3 -382 71 -21 39 -21 51 -22 744 -1 387 2 720 7 739 10 44 38 83 73 100
20 10 99 13 322 14 162 0 298 -2 301 -6 3 -3 6 -94 5 -201 -1 -194 0 -195 21
-196 25 -1 263 -1 290 0 16 1 17 23 15 363 l-3 363 -526 0 c-356 0 -542 -3
-576 -11z"/>
<path d="M16081 30490 c-4 -3 -7 -76 -7 -162 l0 -157 70 0 c39 0 83 0 99 0
l27 -1 0 -833 0 -833 -77 -1 c-43 0 -87 -1 -99 -2 -20 -1 -21 -6 -20 -161 l0
-160 803 0 802 0 -2 368 -2 367 -162 1 -163 1 0 -206 0 -207 -355 0 -355 -1 0
358 0 359 368 2 367 3 1 148 c0 81 -3 150 -8 153 -4 3 -170 5 -368 5 l-360 0
0 319 c0 176 3 320 8 320 10 1 546 1 618 1 l61 -1 -1 -195 -1 -195 163 0 162
0 0 358 0 357 -781 0 c-429 0 -784 -2 -788 -5z"/>
<path d="M17866 30345 c1 -82 2 -156 3 -162 1 -10 26 -12 96 -10 l95 2 0 -836
0 -836 -87 -1 c-49 0 -93 -1 -98 -1 -7 -1 -11 -56 -10 -158 l0 -158 270 -3
270 -2 -1 732 c-1 403 -4 762 -8 798 -3 36 -9 90 -12 120 -3 30 -4 53 -1 50 5
-5 49 -88 167 -315 34 -66 70 -133 80 -150 10 -16 43 -79 75 -140 32 -60 79
-150 105 -200 142 -268 421 -797 445 -842 l27 -53 177 0 176 0 0 995 0 995 50
1 c28 0 71 0 98 -1 l47 -1 0 163 0 163 -269 0 -270 0 4 -770 c1 -423 5 -788 8
-810 3 -22 9 -60 12 -85 l6 -45 -16 30 c-15 28 -155 300 -448 875 -65 129
-182 359 -260 510 -77 151 -144 279 -149 285 -5 6 -120 10 -296 10 l-287 0 1
-150z"/>
<path d="M19984 30485 c-3 -6 -3 -152 -2 -325 l3 -315 168 0 c92 -1 167 1 168
5 1 3 2 73 3 157 0 83 4 154 8 158 6 6 113 8 306 6 l52 -1 0 -833 0 -834 -101
1 c-55 1 -104 -1 -108 -4 -4 -3 -7 -76 -7 -162 l0 -158 401 0 402 0 -1 162 -1
162 -107 0 -108 -1 0 834 0 833 43 1 c160 2 308 0 317 -6 6 -4 10 -51 9 -123
0 -64 0 -135 0 -158 l1 -40 170 0 170 0 0 323 c0 178 -3 324 -7 324 -5 1 -406
2 -892 3 -589 1 -885 -2 -887 -9z"/>
<path d="M21925 30490 c-2 -3 -3 -76 -3 -162 l0 -158 52 1 c28 1 72 1 97 0
l47 -1 0 -833 0 -834 -82 0 c-44 -1 -89 -1 -98 -2 -15 -1 -17 -18 -16 -161 l1
-160 283 0 284 0 -1 499 c-1 275 2 504 5 509 4 7 97 10 265 9 246 -2 261 -3
288 -23 57 -42 61 -75 61 -523 0 -224 1 -421 1 -438 l1 -33 283 0 283 0 0 158
c0 86 -3 159 -7 162 -5 3 -49 5 -99 4 l-90 -2 -1 262 c0 143 -2 270 -4 281
-14 95 -52 187 -93 226 -48 46 -174 107 -205 100 -5 -1 -6 3 -3 7 3 5 24 12
47 16 91 15 185 84 223 166 19 41 21 66 24 295 4 272 -5 358 -43 435 -48 95
-129 161 -235 191 -34 9 -197 13 -653 13 -335 1 -610 -1 -612 -4z m1090 -330
c22 -7 43 -25 57 -48 22 -35 23 -48 26 -259 3 -203 2 -225 -16 -266 -36 -81
-40 -82 -334 -83 l-258 -1 0 51 c-1 107 -1 543 0 581 l0 40 245 -2 c150 -1
259 -6 280 -13z"/>
<path d="M23775 30490 c-2 -3 -3 -75 -4 -161 l-1 -157 96 0 c52 0 97 -2 99 -4
3 -3 5 -357 6 -789 1 -738 2 -788 20 -859 43 -167 157 -282 323 -326 74 -20
699 -18 776 2 161 42 270 154 316 325 16 58 17 137 18 851 1 432 4 790 8 793
4 4 49 7 100 7 l93 -1 -1 152 c-1 84 -2 157 -3 162 -1 6 -98 10 -270 10 l-270
0 0 -926 c0 -510 -3 -940 -7 -955 -9 -37 -39 -81 -67 -96 -31 -18 -540 -20
-582 -3 -41 17 -60 42 -73 95 -7 30 -11 322 -11 895 0 468 -1 882 -1 920 l0
70 -281 0 c-154 0 -282 -2 -284 -5z"/>
<path d="M25774 30491 c-2 -2 -4 -76 -4 -163 l0 -160 43 2 c23 1 68 1 100 1
l57 -1 0 -833 0 -834 -87 2 c-49 0 -94 -1 -100 -3 -10 -3 -13 -45 -13 -163 l0
-159 270 0 270 0 0 898 0 897 44 -95 c24 -52 59 -129 79 -170 19 -41 49 -106
67 -145 18 -38 47 -101 65 -140 18 -38 47 -101 65 -140 18 -38 51 -110 74
-160 23 -49 60 -129 81 -177 39 -85 41 -88 75 -89 84 -3 221 -1 225 3 2 2 92
211 200 463 108 253 206 483 219 510 13 28 29 67 37 88 7 20 16 37 19 37 3 0
5 -400 5 -890 l0 -890 272 0 271 0 0 160 c-1 139 -3 160 -17 161 -9 1 -54 2
-101 3 l-85 1 0 833 0 832 25 1 c14 0 59 0 101 0 l77 -1 -2 162 -1 163 -300 0
-300 0 -103 -235 c-57 -129 -109 -248 -116 -265 -8 -16 -24 -52 -36 -80 -12
-27 -28 -63 -36 -80 -7 -16 -54 -124 -104 -240 -86 -196 -122 -278 -153 -349
l-13 -29 -26 59 c-144 322 -295 661 -319 712 -16 34 -29 64 -29 66 0 4 -16 39
-96 211 -7 17 -33 75 -57 130 l-45 100 -297 0 c-163 0 -298 -2 -301 -4z"/>
<path d="M29063 30332 l0 -162 71 1 c39 0 83 0 99 0 l27 -1 -2 -832 -3 -833
-75 -1 c-41 -1 -85 -2 -96 -3 -21 -1 -21 -5 -20 -158 l1 -158 283 -3 282 -2 0
500 c0 393 3 500 13 501 6 1 120 2 252 3 201 1 245 -2 275 -15 36 -16 65 -59
74 -110 3 -13 5 -216 5 -451 l1 -428 283 0 282 0 0 160 c0 135 -2 160 -15 161
-8 1 -52 1 -97 1 l-83 0 0 182 c-1 267 -6 477 -14 510 -14 60 -66 144 -119
193 -83 75 -154 95 -347 96 -82 1 -150 2 -150 4 0 3 53 85 175 273 34 52 105
162 159 243 53 82 96 152 96 158 0 9 22 11 183 10 l97 0 1 45 c0 24 0 87 0
139 0 52 0 105 0 118 l-1 22 -227 0 -227 0 -83 -140 c-45 -77 -91 -153 -102
-170 -10 -16 -41 -68 -67 -113 -68 -116 -82 -140 -229 -390 l-130 -220 -5 516
-5 517 -281 0 -281 0 0 -163z"/>
<path d="M31317 30493 c-1 0 -16 -3 -34 -6 -153 -24 -259 -124 -303 -287 -18
-65 -18 -645 0 -720 33 -142 138 -254 266 -286 16 -4 162 -9 324 -11 162 -2
304 -5 316 -8 34 -8 72 -50 84 -96 15 -56 16 -420 1 -476 -11 -39 -57 -91 -84
-94 -7 -1 -137 -3 -289 -4 l-278 -2 0 179 0 178 -188 0 -188 0 0 -340 0 -340
527 0 c309 0 548 4 579 10 155 29 266 150 295 320 12 69 8 658 -5 713 -35 148
-130 249 -270 287 -30 9 -141 13 -340 14 -273 1 -297 3 -327 21 -57 34 -67 78
-66 309 0 177 2 206 19 241 36 74 51 77 335 77 138 0 253 -3 257 -6 3 -4 6
-70 6 -149 l1 -142 180 0 180 0 0 303 c0 167 -2 307 -5 311 -4 5 -987 10 -993
4z"/>
<path d="M32564 30137 l1 -357 180 2 180 3 0 193 0 192 30 1 c113 2 678 0 680
-3 3 -3 -75 -129 -208 -333 -28 -44 -57 -89 -63 -100 -6 -11 -53 -85 -104
-165 -181 -281 -573 -896 -635 -995 l-62 -100 1 -145 1 -145 775 -3 775 -2 0
360 0 360 -180 -2 -180 -3 0 -196 1 -195 -373 0 c-205 0 -373 3 -373 6 0 4 13
26 29 51 49 75 161 252 351 554 100 160 224 355 274 435 167 262 191 300 201
318 5 9 19 31 31 47 11 17 56 88 100 159 l79 128 0 144 c1 79 -2 145 -5 145
-3 1 -343 2 -755 3 l-751 1 0 -358z"/>
<path d="M34294 30491 c-2 -2 -4 -149 -4 -326 l0 -321 168 0 c125 0 168 3 172
13 3 7 5 80 4 163 l-1 150 31 1 c31 0 255 0 309 -1 l27 0 0 -834 0 -834 -105
2 c-66 1 -106 -2 -106 -9 -1 -5 -3 -79 -3 -162 l-2 -153 401 0 401 0 0 160 c0
155 0 160 -20 161 -12 1 -60 2 -108 1 l-88 0 0 834 0 834 28 1 c100 3 326 -2
331 -7 3 -3 7 -74 8 -157 0 -84 1 -155 2 -158 1 -3 76 -5 169 -5 l167 1 3 325
2 325 -891 0 c-490 0 -893 -2 -895 -4z"/>
<path d="M36650 30486 c-6 -6 -10 -16 -10 -24 0 -7 -9 -46 -20 -85 -11 -40
-48 -175 -81 -302 -75 -286 -293 -1114 -320 -1215 -11 -41 -36 -136 -56 -210
-19 -74 -37 -138 -39 -141 -2 -4 -38 -6 -79 -5 -42 1 -80 -1 -85 -4 -8 -5 -14
-142 -11 -272 l1 -48 225 0 224 0 11 39 c5 21 29 117 51 212 22 96 43 183 45
194 3 11 7 31 10 45 3 14 12 50 20 80 9 30 18 66 20 80 3 14 7 37 10 53 l6 27
318 0 318 0 21 -87 c12 -49 24 -95 26 -103 7 -36 99 -411 114 -470 l17 -65
252 -3 252 -2 0 162 0 163 -90 -1 -90 -1 -10 41 c-17 66 -71 265 -90 336 -18
64 -149 561 -156 590 -2 8 -19 76 -39 150 -57 216 -95 360 -115 435 -9 39 -25
95 -34 126 -9 31 -18 65 -21 75 -2 11 -16 69 -32 129 l-29 110 -262 0 c-154 0
-267 -4 -272 -9z m265 -335 c8 -33 17 -74 20 -90 3 -16 9 -40 14 -53 5 -13 9
-26 9 -31 0 -7 7 -37 17 -82 16 -69 69 -296 105 -450 56 -235 54 -225 44 -226
-36 -2 -474 -3 -474 -1 0 2 7 27 15 55 8 29 16 63 19 77 2 14 38 163 80 331
41 169 77 317 80 330 2 13 9 44 16 69 17 62 21 81 27 113 7 37 12 30 28 -42z"/>
<path d="M38023 30335 l2 -160 97 -3 97 -3 0 -347 1 -347 -24 -20 c-13 -11
-58 -45 -100 -75 l-76 -54 0 -163 c0 -90 2 -163 5 -163 3 0 33 19 66 43 33 23
69 47 79 52 10 6 25 17 33 24 14 11 16 -18 14 -301 l-2 -313 -70 -1 c-38 -1
-82 -2 -97 -3 l-28 -1 0 -160 0 -160 755 0 755 0 -2 393 -3 392 -162 1 -162 1
0 -225 c0 -123 -3 -227 -6 -231 -4 -3 -141 -6 -306 -7 l-299 0 -1 25 c-2 91 1
834 3 836 2 1 95 66 208 145 113 79 207 145 210 147 2 2 5 80 5 172 l0 169
-60 -41 c-33 -23 -129 -89 -212 -149 l-153 -107 0 32 c-3 323 -2 428 2 432 3
3 50 6 105 6 l100 0 -1 162 -1 162 -387 0 -387 0 2 -160z"/>
<path d="M39998 30478 c-148 -37 -246 -145 -272 -298 -8 -48 -11 -307 -10
-862 0 -707 2 -800 17 -856 34 -126 120 -219 242 -261 57 -19 83 -20 603 -21
l542 0 0 22 c2 157 -1 702 -4 707 -2 3 -75 6 -163 5 l-158 0 -1 -195 c-1 -107
-2 -199 -3 -205 -1 -7 -94 -10 -308 -10 -292 1 -309 2 -335 21 -34 25 -46 48
-56 105 -4 25 -7 356 -7 735 1 761 0 738 64 784 30 22 38 22 332 23 196 0 303
-3 308 -10 3 -5 6 -96 5 -201 0 -178 1 -191 18 -192 10 0 82 -1 161 -1 l142
-1 5 340 c3 187 3 350 0 364 l-5 24 -525 0 c-460 0 -533 -2 -592 -17z"/>
<path d="M41291 30490 c-5 -4 -7 -277 -2 -312 1 -4 44 -6 96 -5 l95 2 1 -40
c1 -50 0 -1594 0 -1616 -1 -13 -16 -16 -88 -17 -49 0 -92 -1 -98 -1 -8 -1 -12
-227 -6 -308 1 -10 168 -13 801 -13 l800 0 0 369 0 368 -165 0 -164 -1 0 -165
c0 -91 0 -184 0 -207 l-1 -40 -355 0 -355 0 0 358 0 358 369 0 369 0 0 155 c1
139 -1 155 -16 155 -9 1 -176 1 -370 0 l-352 0 2 321 3 321 341 2 342 1 0
-165 c0 -91 1 -180 1 -197 l1 -33 160 0 160 0 0 358 0 357 -781 0 c-429 0
-784 -2 -788 -5z"/>
<path d="M43079 30490 c-1 -3 -2 -76 -3 -162 l-1 -157 93 1 c51 0 95 -2 98 -5
4 -4 8 -1518 4 -1648 0 -13 -15 -15 -91 -15 -72 1 -92 -2 -98 -14 -4 -8 -7
-80 -7 -160 l1 -145 270 -3 270 -2 -1 757 c0 417 -3 776 -7 798 -11 64 -18
145 -13 145 3 0 20 -30 39 -67 18 -38 50 -97 69 -133 19 -36 61 -114 93 -175
32 -60 74 -141 95 -180 20 -38 65 -124 100 -190 34 -66 80 -151 100 -190 21
-38 62 -117 93 -175 30 -58 83 -157 116 -220 34 -63 91 -172 128 -243 l68
-127 175 2 175 3 2 988 c1 544 3 991 6 993 3 3 47 6 98 7 l94 2 0 160 0 160
-270 0 -271 0 2 -755 c1 -415 4 -777 8 -805 17 -127 17 -140 6 -125 -5 8 -51
96 -101 195 -51 99 -133 261 -184 360 -51 99 -163 320 -250 490 -87 171 -196
384 -242 475 l-85 165 -289 0 c-159 0 -290 -2 -290 -5z"/>
<path d="M45190 30333 l0 -162 58 0 c31 1 75 0 98 0 l40 -1 0 -832 -1 -833
-95 -1 -95 -1 -3 -161 -2 -162 380 0 380 0 1 48 c4 216 3 272 -1 273 -3 1 -48
2 -100 2 l-95 2 0 828 c0 486 4 831 9 835 5 3 49 4 98 4 77 -2 88 0 89 16 1
22 1 295 0 302 -1 3 -172 5 -381 5 l-380 0 0 -162z"/>
<path d="M46767 30482 c-6 -8 -12 -19 -13 -26 -3 -18 -170 -653 -223 -851 -17
-60 -41 -153 -55 -205 -13 -52 -33 -129 -44 -170 -11 -41 -57 -214 -101 -385
-45 -170 -85 -317 -90 -325 -6 -11 -27 -15 -78 -16 -108 -1 -101 11 -100 -168
l1 -156 226 0 226 0 42 178 c24 97 44 186 47 197 9 48 57 245 72 298 l16 57
315 -2 316 -3 53 -215 c29 -118 55 -224 57 -235 2 -11 16 -65 29 -120 14 -55
28 -112 31 -128 l6 -27 253 2 252 3 0 160 0 159 -90 1 -90 0 -27 105 c-15 58
-35 130 -43 160 -27 95 -95 354 -99 375 -3 11 -23 90 -46 175 -23 85 -43 160
-45 165 -3 14 -12 49 -62 235 -47 177 -51 191 -57 218 -2 9 -14 53 -25 97 -12
44 -24 88 -26 98 -2 10 -7 27 -10 37 -3 10 -8 27 -10 37 -15 67 -74 275 -80
281 -3 4 -121 7 -262 7 -202 0 -257 -3 -266 -13z m434 -1062 c18 -74 32 -136
31 -137 0 -2 3 -16 8 -33 l9 -30 -82 0 c-122 -1 -348 -1 -379 -1 l-26 1 14 48
c13 40 23 79 39 152 2 8 24 100 50 203 25 103 48 195 50 205 2 9 17 72 34 139
17 67 32 132 35 145 2 13 6 30 9 38 3 8 8 29 12 45 6 23 25 -44 86 -305 43
-184 93 -396 110 -470z"/>
<path d="M14458 26490 c0 -3 -2 -76 -3 -162 l-1 -157 66 0 c36 0 80 0 98 0
l32 -1 0 -834 0 -833 -82 -1 c-46 0 -90 -1 -99 -1 -13 -1 -15 -23 -15 -161
l-1 -160 756 0 756 0 -1 388 c-1 213 -2 389 -3 393 0 3 -75 5 -165 5 l-163 1
-1 -221 c-1 -122 -1 -226 -2 -231 0 -7 -101 -11 -305 -11 l-305 0 0 833 0 833
23 1 c12 0 59 0 105 0 71 0 82 2 83 17 1 21 1 295 0 302 -1 7 -771 7 -773 0z"/>
<path d="M16461 26488 c-100 -17 -195 -80 -249 -166 -66 -103 -64 -79 -64
-981 1 -449 3 -825 5 -836 31 -135 101 -236 197 -281 84 -40 123 -44 516 -44
210 0 405 4 433 10 150 28 262 142 296 300 17 83 14 1658 -4 1720 -39 136
-128 228 -257 266 -52 16 -108 18 -445 19 -212 0 -405 -3 -428 -7z m659 -322
c59 -8 95 -44 105 -108 4 -23 7 -351 7 -728 0 -700 -2 -748 -38 -785 -40 -40
-61 -42 -331 -41 l-263 1 -31 31 c-54 54 -55 72 -53 824 2 742 2 742 56 783
14 10 40 22 57 26 40 8 425 6 491 -3z"/>
<path d="M17813 26493 c-6 -2 -9 -598 -4 -643 1 -3 78 -6 171 -6 l170 0 0 163
c0 138 2 163 15 164 8 0 74 0 145 0 72 0 147 0 168 0 l38 -1 -1 -827 c-1 -456
-3 -831 -3 -834 -1 -4 -41 -6 -89 -5 -135 3 -123 19 -123 -165 l0 -159 402 2
402 3 1 145 c0 80 -3 152 -6 160 -6 12 -27 15 -108 14 -56 0 -101 2 -102 5 -6
39 -2 1654 4 1658 12 7 347 6 354 -1 4 -3 7 -75 8 -159 1 -83 3 -155 3 -158 2
-5 314 -5 332 0 5 1 6 606 1 636 0 7 -303 10 -886 10 -487 0 -888 -1 -892 -2z"/>
<path d="M19749 26465 c-1 -35 -1 -252 0 -277 1 -14 14 -16 90 -16 49 0 93 -2
98 -5 4 -3 8 -378 8 -834 l0 -828 -92 0 c-51 -1 -95 -4 -99 -8 -5 -5 -8 -151
-4 -294 l0 -23 269 0 269 0 -2 773 c-2 424 -6 783 -9 797 -3 14 -8 52 -12 85
-7 69 -16 81 85 -110 34 -66 77 -147 95 -180 58 -109 170 -320 270 -510 106
-202 147 -279 196 -370 72 -135 186 -352 222 -422 l31 -63 178 0 178 0 0 991
c-1 546 2 994 4 997 3 2 47 5 98 6 l93 1 0 160 0 160 -270 0 -269 0 0 -710 c0
-734 6 -914 30 -985 16 -47 -27 31 -136 245 -153 300 -356 698 -515 1010 -67
132 -146 285 -174 340 l-51 100 -290 0 -290 0 -1 -30z"/>
<path d="M21865 26481 c-3 -8 -5 -81 -4 -162 l1 -147 98 1 99 2 0 -836 0 -835
-92 -1 c-51 -1 -95 -2 -99 -2 -5 -1 -8 -73 -7 -161 l0 -160 382 2 382 3 0 158
c0 134 -2 157 -15 158 -8 0 -52 1 -97 1 l-83 0 -1 567 c0 311 0 684 0 829 -1
145 2 266 4 269 3 3 46 5 96 5 50 0 92 3 92 6 4 25 4 304 -1 310 -3 4 -173 7
-377 7 -314 0 -374 -2 -378 -14z"/>
<path d="M23120 26483 c-77 -15 -130 -44 -184 -99 -44 -44 -87 -121 -102 -180
-12 -48 -16 -1620 -4 -1694 23 -139 109 -254 228 -302 57 -23 59 -23 613 -26
l557 -3 0 353 c0 194 -1 360 -4 368 -3 13 -28 15 -156 13 -84 0 -156 -2 -160
-2 -5 -1 -8 -93 -8 -204 l0 -204 -302 1 c-341 2 -349 3 -383 71 -19 39 -20 60
-20 765 0 673 1 728 18 760 33 68 47 71 319 71 134 0 271 0 306 0 l62 -1 0
-200 0 -200 23 -1 c28 -1 266 -1 288 0 15 1 17 34 15 363 l-1 363 -524 0
c-359 0 -542 -4 -581 -12z"/>
<path d="M24411 26485 c-4 -5 -7 -165 -6 -355 l1 -345 182 -3 182 -2 0 195 0
195 38 1 c140 2 665 0 668 -3 3 -3 -816 -1295 -940 -1483 -19 -27 -55 -84 -81
-125 l-49 -75 0 -150 -1 -150 775 0 775 0 1 358 1 357 -179 0 c-162 0 -178 -2
-179 -17 0 -10 -1 -99 -1 -199 l-1 -180 -373 0 c-206 0 -374 2 -374 4 0 3 16
30 36 61 20 31 47 72 59 91 12 19 49 77 81 128 32 50 66 104 75 120 20 34 248
395 304 482 23 36 131 207 240 380 110 173 216 341 236 372 l37 57 -2 148 -1
148 -748 0 c-492 0 -751 -3 -756 -10z"/>
<path d="M26134 26491 c-2 -2 -4 -76 -4 -163 l0 -158 73 1 c39 0 83 0 97 0
l26 -1 -2 -827 c0 -456 -2 -831 -3 -834 0 -3 -38 -5 -83 -4 -46 0 -89 -1 -95
-3 -10 -3 -13 -45 -13 -163 l0 -159 803 0 802 0 0 368 0 367 -165 0 -165 0 0
-202 c0 -128 -4 -204 -10 -205 -5 -1 -164 -2 -352 -3 -230 0 -344 3 -346 10
-2 5 -3 165 -3 355 l1 345 368 3 367 2 1 118 c1 118 -1 185 -5 189 -2 2 -167
4 -367 5 l-364 3 0 318 0 317 30 1 c133 2 648 -1 652 -4 2 -3 4 -91 4 -196 l0
-191 162 2 162 3 0 348 c0 192 -2 352 -5 356 -5 7 -1558 9 -1566 2z"/>
<path d="M28327 26494 c-1 -1 -22 -4 -47 -8 -117 -15 -232 -110 -281 -233
l-24 -58 -3 -820 c-2 -588 0 -837 8 -880 30 -154 121 -256 269 -301 37 -11
151 -13 601 -11 l555 2 0 661 0 661 -367 0 -368 0 0 -162 0 -161 181 0 c99 1
185 -2 190 -5 5 -3 8 -144 7 -340 l-3 -334 -295 -1 c-325 -1 -341 1 -381 57
l-24 34 -2 730 c-2 692 -2 732 16 771 33 72 50 75 364 75 150 0 284 0 300 0
l27 -1 0 -190 0 -190 165 0 165 0 0 58 c1 89 1 573 1 612 l-1 35 -526 0 c-289
0 -526 -1 -527 -1z"/>
<path d="M29962 26484 c-99 -21 -170 -69 -228 -154 -72 -106 -71 -90 -69
-1016 1 -799 1 -820 21 -874 51 -137 145 -221 277 -250 30 -6 203 -10 441 -10
314 1 402 4 441 15 149 45 255 174 271 329 7 59 7 1598 1 1636 -18 111 -76
209 -155 263 -21 15 -65 37 -98 49 -56 20 -77 21 -452 22 -266 1 -412 -2 -450
-10z m716 -328 c16 -8 38 -32 48 -53 18 -36 19 -73 19 -768 0 -680 -1 -732
-18 -762 -36 -66 -43 -68 -327 -69 -210 -2 -261 1 -288 14 -35 16 -58 44 -69
83 -4 13 -8 342 -8 731 -2 757 -2 755 48 806 33 32 84 37 349 35 171 -1 223
-5 246 -17z"/>
<path d="M38972 23522 c-76 -11 -56 -125 51 -292 44 -69 152 -212 203 -270 17
-19 75 -85 130 -146 276 -309 366 -416 461 -549 216 -305 295 -555 260 -825
-7 -55 -30 -147 -46 -185 -28 -67 -81 -177 -107 -219 -27 -46 -174 -247 -198
-272 -6 -6 -30 -33 -53 -60 -63 -75 -72 -84 -169 -190 -116 -126 -178 -193
-201 -220 -10 -12 -54 -61 -99 -110 -45 -49 -118 -133 -164 -187 -121 -145
-215 -241 -304 -313 -178 -142 -495 -267 -1036 -408 -131 -34 -1240 -314
-1270 -321 -8 -2 -76 -19 -150 -39 -74 -19 -243 -62 -375 -96 -132 -34 -283
-73 -335 -86 -168 -45 -402 -105 -419 -109 -9 -2 -41 -10 -71 -19 -30 -8 -172
-45 -315 -82 -143 -37 -327 -84 -410 -106 -82 -21 -157 -40 -165 -42 -8 -2
-35 -9 -60 -16 -25 -7 -52 -13 -60 -15 -8 -2 -58 -15 -110 -28 -143 -38 -336
-88 -625 -163 -143 -36 -363 -93 -490 -126 -126 -33 -237 -61 -245 -63 -8 -2
-98 -24 -200 -50 -102 -26 -192 -48 -200 -51 -8 -2 -267 -67 -575 -145 -308
-77 -567 -142 -575 -144 -8 -2 -161 -40 -340 -85 -179 -45 -329 -83 -335 -84
-5 -1 -19 -5 -30 -9 -11 -3 -31 -8 -45 -11 -14 -2 -45 -9 -70 -16 -25 -7 -52
-14 -60 -16 -8 -1 -105 -26 -215 -54 -381 -98 -590 -151 -606 -154 -8 -2 -107
-27 -220 -56 -112 -29 -211 -53 -219 -55 -8 -2 -78 -20 -155 -40 -77 -21 -147
-38 -156 -40 -9 -2 -106 -27 -215 -55 -110 -29 -206 -53 -214 -55 -8 -2 -44
-11 -80 -20 -36 -9 -73 -19 -82 -21 -10 -2 -27 -6 -38 -9 -11 -3 -28 -7 -37
-9 -10 -2 -189 -48 -398 -101 -209 -53 -391 -99 -404 -102 -14 -2 -28 -6 -31
-8 -4 -2 -22 -7 -41 -10 -19 -3 -58 -13 -87 -22 -30 -8 -64 -16 -75 -17 -12
-2 -32 -6 -44 -10 -12 -4 -30 -9 -40 -11 -10 -2 -110 -26 -223 -54 -113 -28
-216 -52 -230 -55 -14 -2 -54 -12 -90 -21 -36 -9 -75 -18 -88 -21 -13 -2 -80
-18 -150 -34 -70 -16 -138 -31 -152 -34 -14 -2 -70 -13 -125 -25 -94 -19 -120
-24 -205 -37 -19 -3 -44 -8 -55 -11 -19 -6 -19 -5 0 23 24 37 59 72 110 109
22 17 51 40 65 53 14 12 27 22 30 22 11 0 41 60 35 69 -3 6 -31 20 -63 31 -77
30 -185 33 -266 9 -122 -37 -185 -78 -449 -290 -202 -163 -331 -229 -492 -254
-50 -7 -201 -7 -240 0 -247 48 -457 155 -740 376 -55 43 -109 86 -120 96 -11
10 -67 61 -125 112 -134 120 -242 219 -461 421 -116 108 -198 185 -423 400
-307 292 -1314 1311 -1761 1782 -694 730 -822 853 -980 939 -83 46 -179 69
-265 64 -89 -4 -108 -8 -265 -57 -175 -55 -374 -107 -407 -108 -19 0 -28 -5
-28 -16 0 -15 88 -190 180 -359 15 -27 51 -95 80 -150 29 -55 60 -113 70 -130
9 -16 39 -70 65 -120 59 -110 513 -939 655 -1195 56 -102 117 -212 135 -245
49 -91 176 -320 228 -412 26 -45 47 -85 47 -89 0 -3 8 -18 18 -32 11 -15 38
-63 62 -107 23 -44 46 -84 50 -90 4 -5 25 -44 47 -85 22 -41 52 -95 65 -120
40 -72 198 -360 228 -415 15 -27 68 -124 117 -215 50 -91 110 -201 133 -245
24 -44 46 -84 50 -90 4 -5 31 -55 60 -110 29 -55 65 -122 80 -150 15 -27 45
-81 65 -120 21 -38 56 -104 78 -145 138 -255 262 -499 256 -504 -2 -2 -80 -40
-173 -85 -93 -45 -205 -105 -250 -134 -200 -131 -402 -321 -456 -430 -41 -83
-42 -133 -6 -254 29 -99 38 -169 26 -193 -5 -9 -44 -31 -87 -49 -43 -18 -91
-39 -108 -46 -29 -12 -189 -69 -340 -120 -38 -13 -110 -35 -160 -50 -134 -40
-212 -63 -295 -90 -63 -20 -361 -107 -410 -120 -100 -26 -885 -260 -1240 -370
-617 -191 -1129 -378 -1360 -496 -100 -51 -180 -107 -180 -126 0 -5 146 3 187
11 12 3 50 7 84 11 35 4 66 8 69 10 3 2 22 6 44 9 311 49 845 199 1771 496
302 97 444 143 495 160 186 62 727 229 940 290 354 102 679 177 885 205 22 3
55 8 73 11 18 3 76 7 130 9 174 7 306 -25 797 -190 286 -96 581 -183 685 -202
14 -2 70 -15 125 -28 84 -20 153 -36 395 -90 32 -7 339 -78 415 -96 122 -29
257 -56 400 -79 164 -27 157 -26 310 -46 45 -5 118 -14 163 -19 26 -3 99 -12
162 -20 63 -8 144 -17 180 -21 36 -3 67 -7 70 -9 3 -2 41 -6 85 -10 44 -3 87
-8 95 -10 8 -2 38 -7 65 -10 28 -3 68 -8 90 -11 72 -10 89 -12 150 -19 32 -4
67 -8 76 -10 10 -2 46 -6 81 -10 110 -11 150 -15 273 -31 66 -9 138 -18 159
-20 53 -6 198 -42 209 -53 14 -14 -316 -133 -1123 -401 -399 -133 -922 -298
-1030 -325 -31 -8 -122 -35 -330 -98 -118 -36 -231 -70 -250 -75 -57 -16 -366
-110 -485 -147 -60 -19 -209 -64 -330 -100 -121 -37 -362 -109 -535 -162 -173
-52 -502 -150 -730 -219 -228 -68 -428 -128 -445 -133 -97 -31 -1053 -309
-1330 -386 -66 -18 -203 -57 -305 -85 -102 -29 -192 -54 -200 -56 -30 -7 -266
-73 -300 -83 -19 -6 -47 -13 -61 -16 -14 -3 -55 -13 -90 -24 -35 -10 -75 -22
-89 -25 -55 -15 -174 -47 -345 -94 -165 -45 -506 -136 -551 -147 -11 -2 -163
-40 -339 -83 -284 -71 -504 -124 -561 -137 -10 -2 -100 -23 -199 -45 -183 -42
-346 -77 -400 -86 -16 -2 -75 -13 -130 -24 -55 -10 -118 -22 -140 -24 -49 -7
-113 -17 -140 -22 -11 -2 -44 -7 -74 -10 -30 -3 -64 -8 -75 -10 -40 -8 -232
-18 -341 -17 -368 0 -706 153 -1033 467 -40 39 -76 73 -80 76 -18 13 -195 214
-268 305 -44 55 -182 235 -306 400 -123 166 -232 310 -241 320 -168 207 -306
351 -411 429 -109 81 -239 139 -341 152 l-35 4 21 -52 c18 -47 69 -147 126
-248 72 -126 245 -388 514 -776 166 -240 335 -491 349 -519 5 -11 60 -93 73
-110 7 -10 59 -80 74 -100 75 -102 280 -305 308 -305 3 0 21 -11 38 -24 37
-28 134 -77 209 -107 75 -29 262 -76 338 -84 36 -4 74 -9 85 -11 111 -21 732
-21 867 1 13 2 59 6 103 10 44 3 96 7 115 10 19 2 62 6 95 10 33 3 74 8 90 10
17 2 57 7 90 10 32 4 68 9 80 11 11 2 38 6 60 8 32 4 233 34 410 62 131 21
530 94 670 124 50 10 104 21 120 24 84 16 94 18 195 41 32 7 166 37 185 41 11
2 72 15 135 30 63 14 122 27 130 29 8 2 38 9 65 15 28 6 57 13 65 15 164 37
289 67 740 180 294 74 596 151 670 170 74 20 176 47 225 60 50 13 126 33 170
45 44 12 148 40 230 61 83 22 341 92 575 155 945 256 1179 318 1710 450 460
115 736 189 999 270 46 15 89 27 95 28 18 4 129 37 156 46 14 5 70 22 125 39
55 17 197 60 315 97 301 92 373 114 391 118 9 3 63 19 120 36 171 52 301 90
359 107 30 8 145 44 255 78 110 35 216 66 235 71 60 12 137 6 185 -15 51 -22
395 -209 408 -221 5 -4 -14 -77 -43 -163 -75 -229 -93 -327 -93 -502 -1 -522
273 -943 770 -1186 189 -92 445 -163 698 -194 28 -3 64 -8 80 -10 38 -6 122
-13 261 -21 274 -16 699 -3 979 31 53 6 286 42 321 49 12 2 38 7 59 10 20 4
41 8 45 11 3 2 22 7 41 10 67 11 226 58 334 97 368 135 574 321 749 674 96
193 144 327 172 479 18 97 25 285 13 350 -26 142 -35 180 -64 265 -126 372
-369 654 -674 781 -68 29 -173 63 -226 74 -96 21 -170 33 -265 43 -90 9 -527
8 -745 -1 -346 -15 -334 -15 -339 2 -2 9 -7 42 -11 75 -4 32 -13 77 -21 99
-17 49 -10 60 54 81 141 46 234 54 712 61 318 4 441 9 520 20 98 13 243 24
405 30 77 3 158 7 180 10 22 3 81 7 130 10 50 3 104 7 120 9 17 2 73 7 125 11
52 3 118 8 145 10 28 3 82 7 120 10 39 3 81 8 95 10 14 2 69 6 123 10 54 4
108 8 120 10 12 2 60 6 107 10 47 3 99 7 115 9 17 2 68 7 115 11 47 3 96 8
110 10 14 2 66 6 115 10 50 3 97 8 105 10 8 2 54 7 101 10 47 3 95 7 105 9 10
2 55 7 98 11 44 3 93 8 111 10 17 3 60 7 96 10 35 3 82 7 104 10 22 3 103 12
180 20 132 15 159 18 253 30 20 2 62 7 92 10 54 6 91 10 170 20 22 3 57 7 78
10 20 2 53 7 72 9 19 3 73 10 120 16 47 6 96 13 110 15 14 2 45 7 70 10 58 8
66 9 255 40 88 14 203 35 255 46 107 23 96 20 210 49 47 11 94 23 105 25 48
11 273 70 420 111 452 126 1014 327 1400 499 17 8 107 46 200 85 94 40 190 81
215 92 149 68 221 104 270 136 111 71 123 76 215 87 43 5 182 27 265 41 246
41 329 56 350 59 34 7 75 14 140 25 30 6 64 12 75 14 26 5 183 34 215 40 14 2
54 9 90 16 36 7 76 14 90 16 14 3 32 7 40 9 8 2 31 7 50 10 19 3 91 16 160 30
69 13 152 29 185 35 71 13 68 13 265 50 85 16 218 41 295 55 77 14 151 27 165
30 14 3 50 9 80 15 30 6 66 12 80 15 14 3 39 8 55 10 64 12 359 68 525 100 96
19 190 37 209 40 19 3 37 7 40 9 3 2 22 7 41 10 30 5 80 14 166 32 11 2 85 18
165 35 79 17 153 32 164 34 11 3 90 20 175 39 85 19 166 37 180 40 38 7 180
40 330 76 74 17 142 33 150 35 8 2 80 20 160 40 80 20 155 39 167 41 12 2 34
9 48 14 14 5 25 7 25 5 0 -2 12 0 28 6 15 6 34 12 42 14 8 2 42 10 75 19 33 9
110 30 170 46 61 16 196 54 300 85 105 31 210 62 235 70 169 49 498 159 765
254 98 35 401 154 453 177 29 13 54 24 57 24 2 0 43 18 90 40 47 22 89 40 92
40 3 0 96 45 207 99 231 114 412 215 576 323 592 386 938 834 933 1208 -4 276
-205 560 -606 854 -254 187 -1116 747 -1371 891 -111 63 -429 225 -440 225 -3
0 -29 11 -58 24 -206 94 -536 201 -773 252 -85 19 -87 19 -205 39 -52 9 -106
18 -120 20 -14 3 -52 7 -85 11 -33 3 -71 7 -83 9 -168 27 -850 27 -1087 1 -16
-2 -64 -7 -105 -10 -72 -6 -117 -11 -205 -21 -22 -3 -67 -7 -100 -10 -33 -3
-78 -7 -100 -10 -22 -2 -71 -7 -110 -10 -38 -3 -83 -7 -100 -10 -16 -2 -66 -7
-110 -11 -94 -8 -103 -9 -216 -25 -95 -13 -126 -9 -111 17 5 8 60 68 123 132
105 107 221 254 395 502 304 432 440 732 449 990 8 240 -73 420 -300 668 -30
32 -162 156 -329 307 -49 44 -104 94 -121 110 -18 17 -66 59 -106 95 -40 36
-82 74 -94 85 -11 11 -63 58 -115 105 -52 47 -153 142 -225 212 -71 69 -146
140 -165 156 -19 17 -48 42 -65 57 -141 123 -389 233 -493 217z"/>
<path d="M31310 22832 c-9 -3 -130 -233 -130 -247 0 -3 34 -5 75 -5 l75 0 80
120 c44 66 80 123 80 127 0 8 -159 12 -180 5z"/>
<path d="M14464 22481 c-2 -2 -4 -42 -4 -87 l0 -83 53 -3 52 -3 1 -435 c0
-239 -2 -440 -4 -447 -2 -7 -22 -10 -53 -9 l-49 3 0 -89 0 -88 210 0 211 0 -3
87 -3 88 -55 0 -55 0 0 185 0 185 170 1 c150 1 176 4 218 22 70 31 116 89 133
166 10 43 4 343 -6 372 -19 50 -61 96 -107 116 -41 18 -71 20 -375 21 -181 1
-332 0 -334 -2z m606 -196 c22 -23 23 -32 22 -156 0 -122 -2 -133 -23 -155
-23 -24 -26 -24 -163 -22 l-141 3 0 178 -1 177 141 0 c137 0 142 -1 165 -25z"/>
<path d="M15618 22480 c-105 -8 -152 -41 -189 -135 -14 -35 -16 -99 -14 -495
1 -301 5 -464 12 -481 19 -45 65 -91 111 -110 38 -17 70 -19 260 -19 121 0
234 5 255 11 47 13 99 58 123 107 17 34 19 71 20 487 1 498 -1 518 -59 575
-54 53 -83 60 -271 63 -94 1 -206 0 -248 -3z m352 -190 c11 -11 21 -26 21 -32
7 -59 5 -761 -2 -790 -6 -24 -17 -39 -32 -44 -33 -12 -279 -12 -304 -1 -12 6
-27 24 -32 41 -14 44 -12 775 2 801 21 40 37 44 185 45 129 0 144 -2 162 -20z"/>
<path d="M16373 22482 l-73 -3 0 -84 0 -85 53 0 53 0 0 -447 -1 -448 -52 0
-53 0 0 -87 0 -88 405 0 c223 0 405 3 406 8 7 50 2 412 -6 413 -12 1 -99 1
-140 0 l-31 -1 1 -116 c0 -63 -2 -119 -5 -123 -6 -9 -319 -10 -321 -2 -1 3 -2
205 -3 449 l-1 442 58 0 57 0 0 88 0 87 -138 0 c-75 0 -170 -1 -209 -3z"/>
<path d="M17184 22479 c-2 -4 -3 -43 -3 -88 l1 -81 54 0 55 0 -3 -447 -3 -448
-50 0 -50 -1 -3 -87 -3 -87 205 0 206 0 0 88 0 87 -52 0 -52 0 0 425 c-1 234
1 435 3 448 3 19 9 22 52 22 l49 0 0 88 0 87 -201 0 c-110 0 -203 -3 -205 -6z"/>
<path d="M17687 22482 c-15 -3 -17 -22 -17 -177 l0 -173 93 2 92 1 0 85 0 85
99 0 98 0 0 -425 c0 -234 -1 -435 -1 -446 -1 -19 -7 -22 -48 -22 -27 0 -53 0
-58 -1 -6 -1 -10 -36 -10 -83 l1 -83 217 -3 217 -2 0 84 c0 93 1 93 -72 91
l-48 -1 0 448 0 448 100 0 100 0 0 -88 0 -88 90 0 90 0 1 78 c0 43 1 94 1 113
0 19 -1 63 -1 98 l-1 62 -463 0 c-255 0 -471 -1 -480 -3z"/>
<path d="M18778 22482 l-68 -3 0 -84 0 -85 53 0 53 0 -1 -447 0 -448 -40 -1
c-22 -1 -46 -2 -52 -3 -9 -1 -13 -25 -13 -86 l0 -85 432 2 431 3 1 165 c1 91
0 179 -2 196 l-4 32 -81 -3 c-45 -2 -84 -3 -87 -4 -3 -1 -5 -50 -4 -109 l1
-108 -191 1 -191 0 0 190 0 190 198 3 197 2 0 83 0 82 -195 0 c-107 0 -196 2
-196 5 -1 3 -2 80 -3 173 l-1 167 185 -2 184 -3 0 -100 0 -100 30 -5 c17 -3
56 -3 87 -2 l57 4 0 184 c0 108 -4 187 -10 190 -10 6 -652 11 -770 6z"/>
<path d="M19925 22480 c-124 -8 -174 -38 -211 -125 -15 -35 -17 -90 -17 -475
0 -239 3 -452 7 -473 11 -57 37 -98 85 -132 l43 -30 309 -3 c306 -3 309 -3
310 17 0 12 0 89 0 171 0 83 0 163 0 178 l-1 28 -85 -1 c-78 0 -85 -2 -86 -20
0 -11 -1 -61 -1 -111 l-1 -91 -168 1 c-189 1 -196 4 -208 73 -4 21 -6 203 -6
405 l1 367 24 26 24 25 165 -2 166 -3 1 -105 1 -105 86 -3 87 -2 1 37 c1 53 1
281 0 323 l-1 35 -217 0 c-120 0 -258 -2 -308 -5z"/>
<path d="M20539 22465 c-1 -23 -1 -136 0 -147 1 -5 25 -8 54 -8 l52 0 -1 -442
c-1 -244 -2 -446 -3 -449 -1 -3 -19 -5 -40 -4 -22 1 -45 -1 -52 -5 -10 -7 -14
-70 -10 -152 1 -16 15 -18 151 -18 113 0 150 3 151 13 0 6 1 128 1 270 l1 257
41 1 c42 0 277 0 309 -1 16 0 17 -20 17 -270 l0 -270 153 0 152 0 1 85 c0 54
-3 85 -10 86 -6 1 -30 1 -53 2 l-43 0 0 448 0 449 54 0 53 0 -1 85 c0 50 -5
85 -11 85 -27 1 -243 2 -267 1 l-28 -1 0 -270 0 -270 -182 2 -183 3 -1 262 c0
145 -3 266 -7 269 -4 4 -72 7 -152 8 -138 1 -145 0 -146 -19z"/>
<path d="M21658 22482 l-68 -3 0 -84 0 -85 54 0 54 0 -2 -447 -1 -448 -35 -1
c-75 -3 -70 4 -70 -89 l0 -85 145 0 c109 0 145 3 146 13 4 65 0 787 -6 832 -4
37 -3 56 3 50 5 -5 38 -64 72 -130 75 -142 132 -251 170 -320 15 -27 59 -111
98 -185 39 -74 86 -163 104 -198 l33 -62 95 2 95 3 0 530 0 530 53 3 52 3 0
85 0 84 -57 1 c-64 1 -175 1 -211 0 l-24 -1 4 -449 c1 -247 3 -449 2 -448 -1
1 -88 173 -194 382 -194 381 -259 507 -265 513 -5 5 -166 8 -247 4z"/>
<path d="M22750 22480 c-25 -5 -25 -7 -25 -85 l0 -80 53 -3 52 -3 0 -448 0
-448 -45 2 c-25 1 -48 -1 -53 -4 -4 -3 -7 -43 -8 -88 l0 -83 203 0 c112 0 204
3 204 8 1 4 2 42 3 85 2 84 5 81 -66 79 l-38 -1 0 449 0 449 52 3 53 3 0 83 1
82 -60 1 c-238 4 -304 3 -326 -1z"/>
<path d="M23233 22482 c-22 -3 -23 -8 -22 -88 l1 -84 53 0 52 0 1 -448 0 -448
-52 0 -51 0 -3 -87 -2 -87 153 0 154 0 -1 253 c-1 138 0 260 2 270 4 15 19 17
142 17 199 0 184 23 188 -289 l3 -252 152 3 152 3 0 70 c1 104 1 102 -56 99
l-49 -2 0 167 c0 185 -12 247 -55 294 -45 48 -91 64 -190 66 -49 1 -91 3 -92
5 -1 1 8 18 21 37 13 18 67 100 119 181 l96 147 73 3 72 3 1 83 0 82 -60 1
c-95 2 -187 0 -190 -3 -1 -2 -73 -122 -159 -268 -86 -146 -160 -266 -164 -268
-4 -1 -7 117 -6 263 1 171 -3 268 -9 272 -11 7 -235 10 -274 5z"/>
<path d="M24611 22478 c-12 -4 -24 -28 -35 -75 -9 -37 -37 -144 -62 -236 -25
-93 -47 -176 -49 -185 -7 -32 -114 -437 -124 -467 -5 -16 -13 -46 -16 -66 -6
-35 -7 -35 -56 -35 l-49 1 0 -88 0 -88 121 3 122 3 12 45 c7 25 25 97 39 162
15 64 31 131 36 150 l10 33 147 -2 c82 -1 158 -2 170 -2 19 -1 25 -18 68 -196
l48 -196 135 3 136 3 1 83 c0 45 -2 82 -5 83 -3 1 -24 2 -47 3 -23 1 -44 4
-46 6 -2 3 -13 41 -24 85 -12 44 -35 132 -51 195 -17 63 -60 228 -96 365 -36
138 -73 273 -81 300 -8 28 -18 65 -22 84 l-9 33 -127 2 c-71 0 -136 -2 -146
-6z m130 -170 c1 -19 7 -47 24 -118 9 -36 18 -76 21 -90 2 -14 7 -36 11 -50 9
-37 9 -37 36 -147 l24 -103 -26 -1 c-151 -3 -231 -3 -231 1 0 3 28 121 62 263
55 225 76 290 79 245z"/>
<path d="M25762 22475 c-4 -5 -7 -45 -7 -87 l-1 -78 53 0 53 0 1 -290 c0 -159
0 -346 0 -415 0 -216 5 -194 -38 -193 -71 2 -68 6 -68 -84 l0 -83 212 -3 211
-2 0 67 c0 110 1 110 -60 109 l-53 -1 -3 185 -2 185 170 1 c196 1 238 12 294
74 54 60 67 119 65 298 0 83 -6 168 -12 188 -14 45 -77 109 -123 124 -45 15
-683 20 -692 5z m599 -184 c23 -19 24 -24 24 -160 0 -184 9 -175 -180 -179
l-145 -3 0 180 0 181 139 0 c122 0 142 -2 162 -19z"/>
<path d="M26924 22480 c-104 -7 -154 -37 -190 -113 l-24 -52 0 -456 1 -457 24
-48 c15 -30 42 -61 68 -79 l42 -30 224 -3 c302 -5 351 10 401 115 23 48 23 49
24 498 0 489 -1 498 -56 560 -47 55 -91 66 -273 68 -88 1 -197 0 -241 -3z
m346 -195 l23 -25 0 -394 c0 -345 -2 -397 -16 -419 -21 -32 -29 -34 -189 -33
-117 1 -140 4 -155 19 -17 16 -18 51 -21 422 l-3 405 25 25 c24 24 29 25 169
25 140 0 144 -1 167 -25z"/>
<path d="M27650 22482 l-45 -3 0 -189 0 -190 97 0 98 0 0 105 0 105 190 0
c105 0 190 -2 190 -5 0 -3 -41 -69 -92 -147 -50 -79 -143 -224 -206 -323 -64
-99 -151 -236 -195 -305 l-80 -125 -2 -82 -1 -83 418 0 418 0 0 193 0 194 -87
0 c-49 0 -93 -2 -98 -6 -6 -3 -10 -50 -10 -106 l0 -100 -197 -1 c-109 0 -198
3 -198 8 0 6 45 79 135 218 12 19 93 148 180 285 87 138 180 284 207 326 47
74 48 78 48 152 l0 77 -62 1 c-259 3 -671 3 -708 1z"/>
<path d="M28593 22482 l-63 -3 0 -84 0 -84 52 -3 52 -3 0 -438 c1 -242 -1
-442 -4 -447 -3 -4 -25 -7 -50 -6 l-45 1 -3 -88 -3 -87 145 0 145 0 -1 403 c0
221 -4 425 -7 454 -8 60 -1 60 29 -1 11 -24 45 -89 74 -143 29 -54 87 -163
129 -243 42 -80 114 -217 161 -305 l84 -160 96 -3 96 -3 0 38 c1 21 0 262 0
536 l0 497 54 0 53 0 0 85 -1 85 -45 1 c-77 2 -233 -1 -240 -5 -8 -5 -6 -775
3 -851 l7 -60 -54 105 c-29 58 -134 263 -232 455 -98 193 -179 351 -180 353
-4 4 -183 7 -252 4z"/>
<path d="M30056 22480 c-36 -4 -41 -9 -48 -40 -5 -19 -20 -75 -33 -125 -46
-169 -94 -350 -165 -620 -40 -148 -74 -272 -77 -275 -2 -3 -23 -5 -46 -5 l-42
0 -3 -87 -3 -88 123 0 123 0 44 191 c29 123 50 193 59 196 7 3 85 6 172 7
l158 1 48 -197 48 -198 136 0 136 0 0 83 c0 45 -4 85 -9 88 -4 3 -26 5 -47 3
-38 -2 -40 -1 -49 34 -6 21 -22 80 -37 132 -14 52 -29 111 -34 130 -4 19 -18
71 -30 115 -12 44 -48 181 -81 305 -33 124 -62 232 -64 240 -3 8 -10 36 -17
63 -11 47 -12 47 -55 48 -24 0 -71 2 -105 2 -35 1 -81 0 -102 -3z m108 -190
c3 -19 30 -136 60 -260 29 -124 52 -226 51 -228 -4 -5 -244 -6 -249 -1 -3 3
20 106 50 229 84 342 77 323 88 260z"/>
<path d="M30764 22482 c-18 -3 -20 -10 -21 -87 l-1 -85 54 0 54 0 0 -449 0
-448 -45 2 c-24 1 -48 -1 -53 -4 -5 -3 -9 -43 -8 -89 l0 -83 145 3 145 3 1
365 c0 201 -3 403 -7 450 -3 47 -5 86 -4 88 2 1 15 -22 29 -50 15 -29 66 -127
114 -218 49 -91 144 -272 213 -403 l125 -237 95 0 95 0 0 535 0 535 53 0 c45
0 52 3 53 20 0 26 0 126 0 143 -1 9 -33 12 -128 10 -71 0 -136 -2 -146 -2 -17
-1 -18 -24 -17 -408 1 -225 5 -427 9 -450 5 -24 6 -43 2 -43 -3 0 -24 37 -46
83 -80 162 -408 802 -416 811 -7 8 -247 15 -295 8z"/>
<path d="M32061 22474 c-62 -14 -106 -48 -133 -103 -21 -42 -23 -62 -24 -226
-2 -244 14 -293 113 -345 38 -19 60 -22 215 -24 95 -2 176 -4 180 -5 4 0 15
-15 24 -32 13 -26 15 -56 12 -159 -4 -172 5 -164 -197 -165 l-156 0 -2 65 c-1
36 -2 79 -2 95 l-1 30 -100 0 -100 1 0 -183 0 -183 288 0 c175 0 303 4 327 11
22 6 57 27 77 47 59 56 68 96 67 309 -1 200 -8 236 -58 290 -50 54 -79 61
-264 63 -93 0 -178 5 -188 10 -28 15 -39 67 -37 175 1 109 14 151 51 160 12 3
80 4 151 3 l129 -3 -1 -77 -1 -78 100 0 99 0 0 165 c0 125 -3 165 -12 166
-101 6 -521 1 -557 -7z"/>
<path d="M32767 22482 c-14 -3 -17 -17 -17 -87 l0 -84 53 -3 52 -3 1 -445 0
-446 -35 -1 c-76 -1 -71 5 -71 -88 l0 -85 153 0 153 0 -1 258 c-1 141 1 263 3
270 3 9 40 12 137 12 73 0 141 -3 150 -6 39 -15 45 -53 45 -299 l0 -235 150 0
c136 0 150 2 151 18 1 20 1 120 0 143 -1 12 -11 15 -51 13 l-50 -2 -1 57 c0
31 -1 106 -1 168 0 133 -10 179 -50 227 -45 55 -80 69 -191 75 l-98 6 120 183
120 182 70 0 70 0 3 85 c3 85 3 85 -22 86 -59 3 -222 1 -225 -3 -1 -1 -29 -48
-62 -103 -33 -55 -106 -178 -162 -272 -56 -95 -103 -173 -104 -173 -1 0 -2
124 -2 275 0 181 -3 275 -10 276 -33 3 -264 3 -278 1z"/>
<path d="M34120 22420 c-14 -50 -81 -301 -105 -400 -2 -8 -25 -91 -50 -185
-25 -93 -59 -224 -76 -290 -17 -66 -33 -122 -35 -124 -2 -3 -22 -6 -45 -7 -22
-1 -42 -4 -44 -6 -5 -5 -7 -47 -6 -111 l1 -58 122 3 122 3 44 190 c25 105 46
191 48 193 2 3 252 5 315 3 25 -1 27 -6 73 -196 l48 -195 134 0 c74 0 134 3
135 8 0 4 1 42 2 85 2 62 -1 77 -13 78 -8 1 -31 2 -50 3 -33 1 -36 4 -46 46
-7 25 -24 90 -39 145 -14 55 -40 152 -57 215 -16 63 -61 232 -99 374 -38 143
-69 265 -69 273 0 15 6 14 -163 16 l-128 2 -19 -65z m170 -168 c7 -31 29 -129
50 -217 22 -88 41 -172 44 -187 2 -15 7 -32 11 -38 4 -6 -9 -10 -32 -11 -163
-2 -214 -2 -218 3 -3 3 19 109 50 234 65 264 63 255 64 272 2 31 21 -3 31 -56z"/>
</g>
</svg>
